<svg xmlns="http://www.w3.org/2000/svg" style="display:none">
  <symbol id="ico-home" viewBox="219.5 544.5 24 24" fill="none">
    <path d="M241 562.967V555.15C241 553.939 240.46 552.792 239.53 552.027L234.53 547.909C233.058 546.697 230.942 546.697 229.47 547.909L224.47 552.027C223.54 552.792 223 553.939 223 555.15V562.967C223 565.194 224.791 567 227 567H237C239.209 567 241 565.194 241 562.967Z" stroke="currentColor" stroke-width="1.5" stroke-linejoin="round"/>
    <path d="M230 563H234" stroke="currentColor" stroke-width="1.5" stroke-linecap="round"/>
    <path d="M318 563H322" stroke="currentColor" stroke-width="1.5" stroke-linecap="round"/>
  </symbol>
  <symbol id="ico-bar-chart" viewBox="1755.5 544.5 24 24" fill="none">
    <path d="M1759 567V559M1759 559V548M1759 559H1763M1759 548V547M1759 548H1771C1772.1 548 1773 548.895 1773 550V552M1773 552H1775C1776.1 552 1777 552.895 1777 554V562C1777 563.105 1776.1 564 1775 564H1765C1763.9 564 1763 563.105 1763 562V559M1773 552V557C1773 558.105 1772.1 559 1771 559H1763" stroke="currentColor" stroke-width="1.5" stroke-linecap="round" stroke-linejoin="round"/>
    <path d="M1861 557C1861 558.105 1860.1 559 1859 559H1851V562C1851 563.105 1851.9 564 1853 564H1863C1864.1 564 1865 563.105 1865 562V554C1865 552.895 1864.1 552 1863 552H1861V557Z" fill="currentColor"/>
    </g>
    <path d="M1847.75 560H1859.11C1860.15 560 1861 559.105 1861 558V550C1861 548.895 1860.15 548 1859.11 548H1847.75V560Z" fill="currentColor"/>
    <path d="M1189.49 872.515L1184 878M1196.83 872.376L1198.52 870.688C1198.9 870.306 1199.42 870.091 1199.96 870.091C1201.77 870.091 1202.68 867.896 1201.4 866.612L1195.39 860.601C1194.1 859.317 1191.91 860.226 1191.91 862.042C1191.91 862.582 1191.69 863.101 1191.31 863.483L1189.62 865.171C1189.24 865.553 1188.72 865.768 1188.18 865.768C1186.37 865.768 1185.46 867.963 1186.74 869.247L1192.75 875.258C1194.04 876.542 1196.23 875.633 1196.23 873.817C1196.23 873.277 1196.45 872.758 1196.83 872.376Z" stroke="currentColor" stroke-width="1.5" stroke-linecap="round"/>
    <path d="M1279.91 862.042C1279.91 860.226 1282.1 859.317 1283.39 860.601L1289.4 866.612C1290.68 867.896 1289.77 870.091 1287.96 870.091C1287.42 870.091 1286.9 870.306 1286.52 870.688L1284.83 872.376C1284.45 872.758 1284.23 873.277 1284.23 873.817C1284.23 875.633 1282.04 876.542 1280.75 875.258L1274.74 869.247C1273.46 867.963 1274.37 865.768 1276.18 865.768C1276.72 865.768 1277.24 865.553 1277.62 865.171L1279.31 863.483C1279.69 863.101 1279.91 862.582 1279.91 862.042Z" fill="currentColor"/>
    <path d="M429 863.5C430.105 863.5 431 864.395 431 865.5M424 862.703L424.685 862C426.816 859.815 430.271 859.815 432.402 862C434.476 864.127 434.539 867.554 432.546 869.76L426.82 876.098C425.298 877.782 422.702 877.782 421.18 876.098L415.454 869.76C413.461 867.554 413.525 864.127 415.598 862C417.729 859.815 421.184 859.815 423.315 862L424 862.703Z" stroke="currentColor" stroke-width="1.5" stroke-linecap="round" stroke-linejoin="round"/>
    <path d="M230.033 860.271C230.837 858.576 233.163 858.576 233.967 860.271L235.358 863.201C235.677 863.874 236.295 864.341 237.01 864.449L240.119 864.919C241.919 865.191 242.637 867.49 241.335 868.809L239.085 871.09C238.568 871.614 238.332 872.369 238.454 873.108L238.985 876.329C239.293 878.192 237.412 879.613 235.802 878.733L233.021 877.213C232.382 876.863 231.618 876.863 230.979 877.213L228.198 878.733C226.588 879.613 224.707 878.192 225.015 876.329L225.546 873.108C225.668 872.369 225.432 871.614 224.915 871.09L222.665 868.809C221.363 867.49 222.081 865.191 223.881 864.919L226.99 864.449C227.705 864.341 228.323 863.874 228.642 863.201L230.033 860.271Z" stroke="currentColor" stroke-width="1.5" stroke-linejoin="round"/>
    <path d="M274.033 860.271C274.837 858.576 277.162 858.576 277.967 860.271L279.358 863.201C279.677 863.874 280.295 864.341 281.01 864.449L284.119 864.919C285.919 865.191 286.637 867.49 285.335 868.809L283.085 871.09C282.568 871.614 282.332 872.369 282.454 873.108L282.985 876.329C283.293 878.192 281.412 879.613 279.802 878.733L277.021 877.213C276.382 876.863 275.618 876.863 274.979 877.213L272.198 878.733C270.588 879.613 268.707 878.192 269.015 876.329L269.546 873.108C269.668 872.369 269.432 871.614 268.915 871.09L266.665 868.809C265.363 867.49 266.081 865.191 267.881 864.919L270.99 864.449C271.705 864.341 272.323 863.874 272.642 863.201L274.033 860.271Z" fill="currentColor"/>
  </symbol>
  <symbol id="ico-box" viewBox="987.5 544.5 24 24" fill="none">
    <path d="M993 553V563C993 565.209 994.791 567 997 567H1003C1005.21 567 1007 565.209 1007 563V553M1002 556V562M998 556L998 562M1004 550L1002.59 547.891C1002.22 547.334 1001.6 547 1000.93 547H999.07C998.402 547 997.777 547.334 997.406 547.891L996 550M1004 550H996M1004 550H1009M996 550H991" stroke="currentColor" stroke-width="1.5" stroke-linecap="round" stroke-linejoin="round"/>
    <path d="M1090.75 567.75H1084.75C1082.54 567.75 1080.75 565.959 1080.75 563.75V550.75H1094.75V563.75C1094.75 565.959 1092.96 567.75 1090.75 567.75Z" fill="currentColor"/>
    </g>
  </symbol>
  <symbol id="ico-user" viewBox="219.5 648.5 24 24" fill="none">
    <circle cx="232" cy="661" r="1" fill="currentColor"/>
    <path d="M237 661C237 663.761 234.761 666 232 666C229.239 666 227 663.761 227 661C227 658.239 229.239 656 232 656C234.761 656 237 658.239 237 661Z" stroke="currentColor" stroke-width="1.5"/>
    <path d="M242 661C242 666.523 237.523 671 232 671C226.477 671 222 666.523 222 661C222 655.477 226.477 651 232 651C237.523 651 242 655.477 242 661Z" stroke="currentColor" stroke-width="1.5"/>
    <circle cx="320" cy="661" r="1" fill="currentColor"/>
  </symbol>
  <symbol id="ico-grid" viewBox="795.5 648.5 24 24" fill="none">
    <path d="M816 652H804C802.895 652 802 652.895 802 654V657C802 657.552 801.552 658 801 658C799.343 658 798 659.343 798 661C798 662.657 799.343 664 801 664C801.552 664 802 664.448 802 665V668C802 669.105 802.895 670 804 670H806C806.552 670 807 669.552 807 669C807 667.343 808.343 666 810 666C811.657 666 813 667.343 813 669C813 669.552 813.448 670 814 670H816C817.105 670 818 669.105 818 668V665C818 664.448 817.552 664 817 664C815.343 664 814 662.657 814 661C814 659.343 815.343 658 817 658C817.552 658 818 657.552 818 657V654C818 652.895 817.105 652 816 652Z" stroke="currentColor" stroke-width="1.5" stroke-linejoin="round"/>
    <path d="M860 652H848C846.895 652 846 652.895 846 654V657C846 657.552 845.552 658 845 658C843.343 658 842 659.343 842 661C842 662.657 843.343 664 845 664C845.552 664 846 664.448 846 665V668C846 669.105 846.895 670 848 670H850C850.552 670 851 669.552 851 669C851 667.343 852.343 666 854 666C855.657 666 857 667.343 857 669C857 669.552 857.448 670 858 670H860C861.105 670 862 669.105 862 668V665C862 664.448 861.552 664 861 664C859.343 664 858 662.657 858 661C858 659.343 859.343 658 861 658C861.552 658 862 657.552 862 657V654C862 652.895 861.105 652 860 652Z" fill="currentColor"/>
    <path d="M904 652H892C890.895 652 890 652.895 890 654V657C890 657.552 889.552 658 889 658C887.343 658 886 659.343 886 661C886 662.657 887.343 664 889 664C889.552 664 890 664.448 890 665V668C890 669.105 890.895 670 892 670H894C894.552 670 895 669.552 895 669C895 667.343 896.343 666 898 666C899.657 666 901 667.343 901 669C901 669.552 901.448 670 902 670H904C905.105 670 906 669.105 906 668V665C906 664.448 905.552 664 905 664C903.343 664 902 662.657 902 661C902 659.343 903.343 658 905 658C905.552 658 906 657.552 906 657V654C906 652.895 905.105 652 904 652Z" fill="currentColor"/>
    </g>
  </symbol>
  <symbol id="ico-laptop" viewBox="1371.5 544.5 24 24" fill="none">
    <path d="M1380 553V551C1380 548.791 1381.79 547 1384 547L1390 547C1392.21 547 1394 548.791 1394 551V557C1394 559.209 1392.21 561 1390 561H1388M1380 553H1378C1375.79 553 1374 554.791 1374 557V563C1374 565.209 1375.79 567 1378 567H1384C1386.21 567 1388 565.209 1388 563V561M1380 553H1384C1386.21 553 1388 554.791 1388 557V561M1378 560L1379.75 561.402C1380.17 561.737 1380.78 561.683 1381.13 561.28L1384 558" stroke="currentColor" stroke-width="1.5" stroke-linecap="round" stroke-linejoin="round"/>
    <path d="M816 652H804C802.895 652 802 652.895 802 654V657C802 657.552 801.552 658 801 658C799.343 658 798 659.343 798 661C798 662.657 799.343 664 801 664C801.552 664 802 664.448 802 665V668C802 669.105 802.895 670 804 670H806C806.552 670 807 669.552 807 669C807 667.343 808.343 666 810 666C811.657 666 813 667.343 813 669C813 669.552 813.448 670 814 670H816C817.105 670 818 669.105 818 668V665C818 664.448 817.552 664 817 664C815.343 664 814 662.657 814 661C814 659.343 815.343 658 817 658C817.552 658 818 657.552 818 657V654C818 652.895 817.105 652 816 652Z" stroke="currentColor" stroke-width="1.5" stroke-linejoin="round"/>
    <path d="M860 652H848C846.895 652 846 652.895 846 654V657C846 657.552 845.552 658 845 658C843.343 658 842 659.343 842 661C842 662.657 843.343 664 845 664C845.552 664 846 664.448 846 665V668C846 669.105 846.895 670 848 670H850C850.552 670 851 669.552 851 669C851 667.343 852.343 666 854 666C855.657 666 857 667.343 857 669C857 669.552 857.448 670 858 670H860C861.105 670 862 669.105 862 668V665C862 664.448 861.552 664 861 664C859.343 664 858 662.657 858 661C858 659.343 859.343 658 861 658C861.552 658 862 657.552 862 657V654C862 652.895 861.105 652 860 652Z" fill="currentColor"/>
    <path d="M904 652H892C890.895 652 890 652.895 890 654V657C890 657.552 889.552 658 889 658C887.343 658 886 659.343 886 661C886 662.657 887.343 664 889 664C889.552 664 890 664.448 890 665V668C890 669.105 890.895 670 892 670H894C894.552 670 895 669.552 895 669C895 667.343 896.343 666 898 666C899.657 666 901 667.343 901 669C901 669.552 901.448 670 902 670H904C905.105 670 906 669.105 906 668V665C906 664.448 905.552 664 905 664C903.343 664 902 662.657 902 661C902 659.343 903.343 658 905 658C905.552 658 906 657.552 906 657V654C906 652.895 905.105 652 904 652Z" fill="currentColor"/>
    </g>
    <path d="M999.375 651.722L994.378 653.943C992.932 654.586 991.978 656.025 992.07 657.604C992.43 663.778 994.238 666.496 998.936 669.677C1000.18 670.52 1001.82 670.522 1003.06 669.678C1007.78 666.48 1009.52 663.723 1009.91 657.625C1010.01 656.036 1009.06 654.581 1007.6 653.934L1002.62 651.722C1001.59 651.262 1000.41 651.262 999.375 651.722Z" stroke="currentColor" stroke-width="1.5"/>
    <path d="M1004 661C1004 662.657 1002.66 664 1001 664C999.343 664 998 662.657 998 661C998 659.343 999.343 658 1001 658C1002.66 658 1004 659.343 1004 661Z" stroke="currentColor" stroke-width="1.5"/>
    <circle cx="1089" cy="661" r="3" fill="currentColor"/>
  </symbol>
  <symbol id="ico-cpu" viewBox="1179.5 544.5 24 24" fill="none">
    <path d="M1192 547V548M1192 566V567M1200.66 552L1199.79 552.5M1184.21 561.5L1183.34 562M1183.34 552L1184.21 552.5M1199.79 561.5L1200.66 562M1198 557C1198 560.314 1195.31 563 1192 563C1188.69 563 1186 560.314 1186 557C1186 553.686 1188.69 551 1192 551C1195.31 551 1198 553.686 1198 557Z" stroke="currentColor" stroke-width="1.5" stroke-linecap="round"/>
    <circle cx="232" cy="661" r="1" fill="currentColor"/>
    <path d="M237 661C237 663.761 234.761 666 232 666C229.239 666 227 663.761 227 661C227 658.239 229.239 656 232 656C234.761 656 237 658.239 237 661Z" stroke="currentColor" stroke-width="1.5"/>
    <path d="M242 661C242 666.523 237.523 671 232 671C226.477 671 222 666.523 222 661C222 655.477 226.477 651 232 651C237.523 651 242 655.477 242 661Z" stroke="currentColor" stroke-width="1.5"/>
    <circle cx="320" cy="661" r="1" fill="currentColor"/>
    <path d="M420 657V655C420 652.791 421.791 651 424 651L430 651C432.209 651 434 652.791 434 655V661C434 663.209 432.209 665 430 665H428M420 657H418C415.791 657 414 658.791 414 661V667C414 669.209 415.791 671 418 671H424C426.209 671 428 669.209 428 667V665M420 657H424C426.209 657 428 658.791 428 661V665" stroke="currentColor" stroke-width="1.5" stroke-linejoin="round"/>
    <path d="M502 661C502 658.791 503.791 657 506 657H512C514.209 657 516 658.791 516 661V667C516 669.209 514.209 671 512 671H506C503.791 671 502 669.209 502 667V661Z" fill="currentColor"/>
    <path d="M612 657V655C612 652.791 613.791 651 616 651L622 651C624.209 651 626 652.791 626 655V661C626 663.209 624.209 665 622 665H620M612 657H610C607.791 657 606 658.791 606 661V667C606 669.209 607.791 671 610 671H616C618.209 671 620 669.209 620 667V665M612 657H616C618.209 657 620 658.791 620 661V665" stroke="currentColor" stroke-width="1.5" stroke-linejoin="round"/>
    <path d="M694 661C694 658.791 695.791 657 698 657H704C706.209 657 708 658.791 708 661V667C708 669.209 706.209 671 704 671H698C695.791 671 694 669.209 694 667V661Z" fill="currentColor"/>
  </symbol>
  <symbol id="ico-settings" viewBox="1181.5 960.5 24 24" fill="none">
    <path d="M1189 975L1190.08 973.196C1190.72 972.132 1192.22 972.031 1193 973C1193.78 973.969 1195.28 973.868 1195.92 972.804L1197 971M1193 979V983M1185 967H1201C1202.1 967 1203 966.105 1203 965C1203 963.895 1202.1 963 1201 963H1185C1183.9 963 1183 963.895 1183 965C1183 966.105 1183.9 967 1185 967ZM1184 967H1202V977C1202 978.105 1201.1 979 1200 979H1186C1184.9 979 1184 978.105 1184 977V967Z" stroke="currentColor" stroke-width="1.5" stroke-linecap="round" stroke-linejoin="round"/>
    <path d="M1271 965C1271 963.895 1271.9 963 1273 963H1289C1290.1 963 1291 963.895 1291 965C1291 966.105 1290.1 967 1289 967H1273C1271.9 967 1271 966.105 1271 965Z" fill="currentColor"/>
    <path d="M1963 1289C1963 1285 1959 1283 1955 1283M1955 1283L1957 1286M1955 1283L1958 1281M1953 1295H1965C1967.21 1295 1969 1293.21 1969 1291V1279C1969 1276.79 1967.21 1275 1965 1275H1953C1950.79 1275 1949 1276.79 1949 1279V1291C1949 1293.21 1950.79 1295 1953 1295Z" stroke="currentColor" stroke-width="1.5" stroke-linecap="round" stroke-linejoin="round"/>
  </symbol>
  <symbol id="ico-info" viewBox="219.5 960.5 24 24" fill="none">
    <path d="M242 975L239.061 972.884C237.534 971.784 235.447 971.898 234.048 973.157L229.952 976.843C228.553 978.102 226.466 978.216 224.939 977.116L222 975M226 983H238C240.209 983 242 981.209 242 979V967C242 964.791 240.209 963 238 963H226C223.791 963 222 964.791 222 967V979C222 981.209 223.791 983 226 983ZM231 969.5C231 970.881 229.881 972 228.5 972C227.119 972 226 970.881 226 969.5C226 968.119 227.119 967 228.5 967C229.881 967 231 968.119 231 969.5Z" stroke="currentColor" stroke-width="1.5" stroke-linecap="round"/>
    <path d="M314 983H326C328.209 983 330 981.209 330 979V975L327.061 972.884C325.534 971.784 323.447 971.898 322.048 973.157L317.952 976.843C316.553 978.102 314.466 978.216 312.939 977.116L310 975V979C310 981.209 311.791 983 314 983Z" fill="currentColor"/>
    <circle cx="316.5" cy="969.5" r="2.5" fill="currentColor"/>
    <path d="M430 1283C431.105 1283 432 1283.9 432 1285C432 1286.1 431.105 1287 430 1287L418 1287C416.895 1287 416 1286.1 416 1285C416 1283.9 416.895 1283 418 1283L430 1283Z" stroke="currentColor" stroke-width="1.5" stroke-linejoin="round"/>
    <path d="M474 1283C475.105 1283 476 1283.9 476 1285C476 1286.1 475.105 1287 474 1287L462 1287C460.895 1287 460 1286.1 460 1285C460 1283.9 460.895 1283 462 1283L474 1283Z" fill="currentColor"/>
  </symbol>
  <symbol id="ico-zap" viewBox="603.5 1064.5 24 24" fill="none">
    <path d="M616 1070V1067M616 1075V1073M616 1087C612.134 1087 609 1083.87 609 1080V1074C609 1071.79 610.791 1070 613 1070H619C621.209 1070 623 1071.79 623 1074V1080C623 1083.87 619.866 1087 616 1087Z" stroke="currentColor" stroke-width="1.5" stroke-linecap="round" stroke-linejoin="round"/>
  </symbol>
  <symbol id="ico-filter" viewBox="603.5 960.5 24 24" fill="none">
    <path d="M808 967.053V981.302M801 969.255C802.266 969.451 803.678 969.777 805 970.288M801 973.255C801.639 973.354 802.316 973.486 803 973.658M799.994 964.011C802.213 964.262 805.193 964.936 807.317 966.424C807.725 966.71 808.275 966.71 808.683 966.424C810.807 964.936 813.787 964.262 816.006 964.011C817.104 963.887 818 964.804 818 965.935V977.2C818 978.331 817.104 979.248 816.006 979.372C813.787 979.623 810.807 980.297 808.683 981.785C808.275 982.072 807.725 982.072 807.317 981.785C805.193 980.297 802.213 979.623 799.994 979.372C798.896 979.248 798 978.331 798 977.2V965.935C798 964.804 798.896 963.887 799.994 964.011Z" stroke="currentColor" stroke-width="1.5" stroke-linecap="round"/>
    <path d="M896.683 966.424C898.807 964.936 901.787 964.262 904.006 964.011C905.104 963.887 906 964.804 906 965.935V977.2C906 978.331 905.104 979.248 904.006 979.372C901.787 979.623 898.807 980.297 896.683 981.785C896.479 981.928 896.24 982 896 982V966.639C896.24 966.639 896.479 966.567 896.683 966.424Z" fill="currentColor"/>
    <path d="M1389.64 1283.13C1388.9 1281.29 1387.1 1280 1385 1280C1382.24 1280 1380 1282.24 1380 1285C1380 1287.1 1381.29 1288.9 1383.13 1289.64M1384.92 1295C1379.43 1294.95 1375 1290.49 1375 1285C1375 1279.48 1379.48 1275 1385 1275C1390.49 1275 1394.95 1279.43 1395 1284.92M1385.06 1286.42L1387.67 1294.26C1388 1295.25 1389.39 1295.25 1389.72 1294.26L1390.68 1291.37C1390.79 1291.04 1391.04 1290.79 1391.37 1290.68L1394.26 1289.72C1395.25 1289.39 1395.25 1288 1394.26 1287.67L1386.42 1285.06C1385.58 1284.78 1384.78 1285.58 1385.06 1286.42Z" stroke="currentColor" stroke-width="1.5" stroke-linecap="round" stroke-linejoin="round"/>
    <path d="M1475.67 1294.26L1473.06 1286.42C1472.78 1285.58 1473.58 1284.78 1474.42 1285.06L1482.26 1287.67C1483.25 1288 1483.25 1289.39 1482.26 1289.72L1479.37 1290.68C1479.04 1290.79 1478.79 1291.04 1478.68 1291.37L1477.72 1294.26C1477.39 1295.25 1476 1295.25 1475.67 1294.26Z" fill="currentColor"/>
    <path d="M1573.63 1283.43C1573.06 1282.29 1571.87 1281.5 1570.5 1281.5C1568.57 1281.5 1567 1283.07 1567 1285C1567 1286.93 1568.57 1288.5 1570.5 1288.5C1571.87 1288.5 1573.06 1287.71 1573.63 1286.57M1573.63 1283.43C1573.87 1283.91 1574 1284.44 1574 1285C1574 1285.56 1573.87 1286.09 1573.63 1286.57M1573.63 1283.43L1580.37 1280.07M1573.63 1286.57L1580.37 1289.93M1580.37 1280.07C1580.94 1281.21 1582.13 1282 1583.5 1282C1585.43 1282 1587 1280.43 1587 1278.5C1587 1276.57 1585.43 1275 1583.5 1275C1581.57 1275 1580 1276.57 1580 1278.5C1580 1279.06 1580.13 1279.59 1580.37 1280.07ZM1580.37 1289.93C1580.13 1290.41 1580 1290.94 1580 1291.5C1580 1293.43 1581.57 1295 1583.5 1295C1585.43 1295 1587 1293.43 1587 1291.5C1587 1289.57 1585.43 1288 1583.5 1288C1582.13 1288 1580.94 1288.79 1580.37 1289.93Z" stroke="currentColor" stroke-width="1.5" stroke-linecap="round"/>
    <path d="M1675 1278.5C1675 1280.43 1673.43 1282 1671.5 1282C1670.13 1282 1668.94 1281.21 1668.37 1280.07C1668.13 1279.59 1668 1279.06 1668 1278.5C1668 1276.57 1669.57 1275 1671.5 1275C1673.43 1275 1675 1276.57 1675 1278.5Z" fill="currentColor"/>
    <path d="M1675 1291.5C1675 1293.43 1673.43 1295 1671.5 1295C1669.57 1295 1668 1293.43 1668 1291.5C1668 1290.94 1668.13 1290.41 1668.37 1289.93C1668.94 1288.79 1670.13 1288 1671.5 1288C1673.43 1288 1675 1289.57 1675 1291.5Z" fill="currentColor"/>
    <path d="M1662 1285C1662 1285.56 1661.87 1286.09 1661.63 1286.57C1661.06 1287.71 1659.87 1288.5 1658.5 1288.5C1656.57 1288.5 1655 1286.93 1655 1285C1655 1283.07 1656.57 1281.5 1658.5 1281.5C1659.87 1281.5 1661.06 1282.29 1661.63 1283.43C1661.87 1283.91 1662 1284.44 1662 1285Z" fill="currentColor"/>
  </symbol>
  <symbol id="ico-list" viewBox="603.5 856.5 24 24" fill="none">
    <path d="M608 864H624M608 861V875C608 876.648 609.882 877.589 611.2 876.6L614.8 873.9C615.511 873.367 616.489 873.367 617.2 873.9L620.8 876.6C622.118 877.589 624 876.648 624 875V861C624 859.895 623.105 859 622 859H610C608.895 859 608 859.895 608 861Z" stroke="currentColor" stroke-width="1.5" stroke-linecap="round" stroke-linejoin="round"/>
    <path d="M698 859H710C711.105 859 712 859.895 712 861V864H696V861C696 859.895 696.895 859 698 859Z" fill="currentColor"/>
  </symbol>
  <symbol id="ico-arrow-right" viewBox="1373.5 1168.5 24 24" fill="none">
    <path d="M1567 1182L1570.53 1184.82C1571.35 1185.48 1572.55 1185.38 1573.26 1184.6L1581 1176M1573 1182L1576.53 1184.82C1577.35 1185.48 1578.55 1185.38 1579.26 1184.6L1587 1176" stroke="currentColor" stroke-width="1.5" stroke-linecap="round" stroke-linejoin="round"/>
  </symbol>
  <symbol id="ico-credit-card" viewBox="219.5 1272.5 24 24" fill="none">
    <path d="M430 1283C431.105 1283 432 1283.9 432 1285C432 1286.1 431.105 1287 430 1287L418 1287C416.895 1287 416 1286.1 416 1285C416 1283.9 416.895 1283 418 1283L430 1283Z" stroke="currentColor" stroke-width="1.5" stroke-linejoin="round"/>
    <path d="M474 1283C475.105 1283 476 1283.9 476 1285C476 1286.1 475.105 1287 474 1287L462 1287C460.895 1287 460 1286.1 460 1285C460 1283.9 460.895 1283 462 1283L474 1283Z" fill="currentColor"/>
    <path d="M433.825 974.874C433.94 974.267 434 973.64 434 973C434 967.477 429.523 963 424 963C418.477 963 414 967.477 414 973C414 973.745 414.082 974.471 414.236 975.17M433.825 974.874C432.948 979.501 428.882 983 424 983C419.222 983 415.227 979.65 414.236 975.17M433.825 974.874L431.061 972.884C429.534 971.784 427.447 971.898 426.048 973.157L421.952 976.843C420.553 978.102 418.466 978.216 416.939 977.116L414.236 975.17M423 970C423 971.105 422.105 972 421 972C419.895 972 419 971.105 419 970C419 968.895 419.895 968 421 968C422.105 968 423 968.895 423 970Z" stroke="currentColor" stroke-width="1.5"/>
    <path d="M509.952 976.843L514.048 973.157C515.447 971.898 517.534 971.784 519.061 972.884L521.825 974.874C520.948 979.501 516.882 983 512 983C507.222 983 503.227 979.649 502.236 975.17L504.939 977.116C506.466 978.216 508.553 978.102 509.952 976.843Z" fill="currentColor"/>
    <circle cx="509" cy="970" r="2" fill="currentColor"/>
  </symbol>
  <symbol id="ico-bell" viewBox="989.5 648.5 24 24" fill="none">
    <path d="M1199.82 651H1186.18C1184.44 651 1183.4 652.916 1184.37 654.346L1190.09 661.827C1190.57 662.534 1190.82 663.365 1190.82 664.215V669.922C1190.82 670.88 1192 671.361 1192.68 670.683L1194.86 668.531C1195.06 668.329 1195.18 668.055 1195.18 667.77V664.215C1195.18 663.365 1195.43 662.534 1195.91 661.827L1201.63 654.346C1202.6 652.916 1201.56 651 1199.82 651Z" stroke="currentColor" stroke-width="1.5" stroke-linecap="round" stroke-linejoin="round"/>
    <path d="M1243.82 651H1230.18C1228.44 651 1227.4 652.916 1228.37 654.346L1234.09 661.827C1234.57 662.534 1234.82 663.365 1234.82 664.215V669.922C1234.82 670.88 1236 671.361 1236.68 670.683L1238.86 668.531C1239.06 668.329 1239.18 668.055 1239.18 667.77V664.215C1239.18 663.365 1239.43 662.534 1239.91 661.827L1245.63 654.346C1246.6 652.916 1245.56 651 1243.82 651Z" fill="currentColor"/>
    <path d="M1287.82 651H1274.18C1272.44 651 1271.4 652.916 1272.37 654.346L1278.09 661.827C1278.33 662.186 1278.52 662.576 1278.64 662.984L1283.35 663.001C1283.48 662.587 1283.66 662.191 1283.91 661.827L1289.63 654.346C1290.6 652.916 1289.56 651 1287.82 651Z" fill="currentColor"/>
    <path d="M1573.75 774H1584M1576.78 758.312C1576.78 758.312 1576.78 759.946 1578.42 761.581C1580.05 763.216 1581.69 763.216 1581.69 763.216M1570.32 770.988L1573.75 770.498C1574.25 770.427 1574.71 770.198 1575.06 769.844L1583.32 761.581C1584.23 760.678 1584.23 759.214 1583.32 758.312L1581.69 756.677C1580.79 755.774 1579.32 755.774 1578.42 756.677L1570.16 764.94C1569.8 765.294 1569.57 765.753 1569.5 766.248L1569.01 769.68C1568.9 770.443 1569.56 771.097 1570.32 770.988Z" stroke="currentColor" stroke-width="1.5" stroke-linecap="round"/>
    <path d="M1660.32 770.988L1663.75 770.498C1664.25 770.427 1664.71 770.198 1665.06 769.844L1671.69 763.216C1671.69 763.216 1670.05 763.216 1668.42 761.581C1666.78 759.946 1666.78 758.312 1666.78 758.312L1660.16 764.94C1659.8 765.294 1659.57 765.753 1659.5 766.248L1659.01 769.68C1658.9 770.443 1659.56 771.097 1660.32 770.988Z" fill="currentColor"/>
    <path d="M1395 765V771C1395 773.209 1393.21 775 1391 775H1379C1376.79 775 1375 773.209 1375 771V759C1375 756.791 1376.79 755 1379 755H1385M1388.69 757.023C1388.69 757.023 1388.69 758.453 1390.12 759.883C1391.55 761.314 1392.98 761.314 1392.98 761.314M1382.15 768.99L1385.16 768.56C1385.59 768.499 1385.99 768.298 1386.3 767.988L1394.41 759.883C1395.2 759.093 1395.2 757.813 1394.41 757.023L1392.98 755.592C1392.19 754.803 1390.91 754.803 1390.12 755.592L1382.01 763.697C1381.7 764.007 1381.5 764.408 1381.44 764.842L1381.01 767.845C1380.92 768.513 1381.49 769.085 1382.15 768.99Z" stroke="currentColor" stroke-width="1.5" stroke-linecap="round"/>
    <path d="M1470.15 768.99L1473.16 768.56C1473.59 768.499 1473.99 768.298 1474.3 767.988L1480.98 761.314C1480.98 761.314 1479.55 761.314 1478.12 759.883C1476.69 758.453 1476.69 757.023 1476.69 757.023L1470.01 763.697C1469.7 764.007 1469.5 764.408 1469.44 764.842L1469.01 767.845C1468.92 768.513 1469.49 769.085 1470.15 768.99Z" fill="currentColor"/>
    <path d="M1959 760V762M1962 761C1963.21 761.912 1964 763.364 1964 765C1964 767.761 1961.76 770 1959 770C1956.24 770 1954 767.761 1954 765C1954 763.364 1954.79 761.912 1956 761M1953 755H1965C1967.21 755 1969 756.791 1969 759V771C1969 773.209 1967.21 775 1965 775H1953C1950.79 775 1949 773.209 1949 771V759C1949 756.791 1950.79 755 1953 755Z" stroke="currentColor" stroke-width="1.5" stroke-linecap="round"/>
    <path d="M1767 760V762M1770 761C1771.21 761.912 1772 763.364 1772 765C1772 767.761 1769.76 770 1767 770C1764.24 770 1762 767.761 1762 765C1762 763.364 1762.79 761.912 1764 761M1777 765C1777 770.523 1772.52 775 1767 775C1761.48 775 1757 770.523 1757 765C1757 759.477 1761.48 755 1767 755C1772.52 755 1777 759.477 1777 765Z" stroke="currentColor" stroke-width="1.5" stroke-linecap="round"/>
    <path d="M1759 567V559M1759 559V548M1759 559H1763M1759 548V547M1759 548H1771C1772.1 548 1773 548.895 1773 550V552M1773 552H1775C1776.1 552 1777 552.895 1777 554V562C1777 563.105 1776.1 564 1775 564H1765C1763.9 564 1763 563.105 1763 562V559M1773 552V557C1773 558.105 1772.1 559 1771 559H1763" stroke="currentColor" stroke-width="1.5" stroke-linecap="round" stroke-linejoin="round"/>
    <path d="M1861 557C1861 558.105 1860.1 559 1859 559H1851V562C1851 563.105 1851.9 564 1853 564H1863C1864.1 564 1865 563.105 1865 562V554C1865 552.895 1864.1 552 1863 552H1861V557Z" fill="currentColor"/>
    </g>
    <path d="M1847.75 560H1859.11C1860.15 560 1861 559.105 1861 558V550C1861 548.895 1860.15 548 1859.11 548H1847.75V560Z" fill="currentColor"/>
    <path d="M1189.49 872.515L1184 878M1196.83 872.376L1198.52 870.688C1198.9 870.306 1199.42 870.091 1199.96 870.091C1201.77 870.091 1202.68 867.896 1201.4 866.612L1195.39 860.601C1194.1 859.317 1191.91 860.226 1191.91 862.042C1191.91 862.582 1191.69 863.101 1191.31 863.483L1189.62 865.171C1189.24 865.553 1188.72 865.768 1188.18 865.768C1186.37 865.768 1185.46 867.963 1186.74 869.247L1192.75 875.258C1194.04 876.542 1196.23 875.633 1196.23 873.817C1196.23 873.277 1196.45 872.758 1196.83 872.376Z" stroke="currentColor" stroke-width="1.5" stroke-linecap="round"/>
    <path d="M1279.91 862.042C1279.91 860.226 1282.1 859.317 1283.39 860.601L1289.4 866.612C1290.68 867.896 1289.77 870.091 1287.96 870.091C1287.42 870.091 1286.9 870.306 1286.52 870.688L1284.83 872.376C1284.45 872.758 1284.23 873.277 1284.23 873.817C1284.23 875.633 1282.04 876.542 1280.75 875.258L1274.74 869.247C1273.46 867.963 1274.37 865.768 1276.18 865.768C1276.72 865.768 1277.24 865.553 1277.62 865.171L1279.31 863.483C1279.69 863.101 1279.91 862.582 1279.91 862.042Z" fill="currentColor"/>
    <path d="M429 863.5C430.105 863.5 431 864.395 431 865.5M424 862.703L424.685 862C426.816 859.815 430.271 859.815 432.402 862C434.476 864.127 434.539 867.554 432.546 869.76L426.82 876.098C425.298 877.782 422.702 877.782 421.18 876.098L415.454 869.76C413.461 867.554 413.525 864.127 415.598 862C417.729 859.815 421.184 859.815 423.315 862L424 862.703Z" stroke="currentColor" stroke-width="1.5" stroke-linecap="round" stroke-linejoin="round"/>
    <path d="M230.033 860.271C230.837 858.576 233.163 858.576 233.967 860.271L235.358 863.201C235.677 863.874 236.295 864.341 237.01 864.449L240.119 864.919C241.919 865.191 242.637 867.49 241.335 868.809L239.085 871.09C238.568 871.614 238.332 872.369 238.454 873.108L238.985 876.329C239.293 878.192 237.412 879.613 235.802 878.733L233.021 877.213C232.382 876.863 231.618 876.863 230.979 877.213L228.198 878.733C226.588 879.613 224.707 878.192 225.015 876.329L225.546 873.108C225.668 872.369 225.432 871.614 224.915 871.09L222.665 868.809C221.363 867.49 222.081 865.191 223.881 864.919L226.99 864.449C227.705 864.341 228.323 863.874 228.642 863.201L230.033 860.271Z" stroke="currentColor" stroke-width="1.5" stroke-linejoin="round"/>
    <path d="M274.033 860.271C274.837 858.576 277.162 858.576 277.967 860.271L279.358 863.201C279.677 863.874 280.295 864.341 281.01 864.449L284.119 864.919C285.919 865.191 286.637 867.49 285.335 868.809L283.085 871.09C282.568 871.614 282.332 872.369 282.454 873.108L282.985 876.329C283.293 878.192 281.412 879.613 279.802 878.733L277.021 877.213C276.382 876.863 275.618 876.863 274.979 877.213L272.198 878.733C270.588 879.613 268.707 878.192 269.015 876.329L269.546 873.108C269.668 872.369 269.432 871.614 268.915 871.09L266.665 868.809C265.363 867.49 266.081 865.191 267.881 864.919L270.99 864.449C271.705 864.341 272.323 863.874 272.642 863.201L274.033 860.271Z" fill="currentColor"/>
    <path d="M1961.4 555.596L1965.8 551.2M1952.2 564.8L1956.6 560.404M1961.4 560.404L1965.8 564.8M1952.2 551.2L1956.6 555.596M1955.6 549.5H1962.4C1965.22 549.5 1967.5 551.783 1967.5 554.6V561.4C1967.5 564.217 1965.22 566.5 1962.4 566.5H1955.6C1952.78 566.5 1950.5 564.217 1950.5 561.4V554.6C1950.5 551.783 1952.78 549.5 1955.6 549.5ZM1962.4 558C1962.4 559.878 1960.88 561.4 1959 561.4C1957.12 561.4 1955.6 559.878 1955.6 558C1955.6 556.122 1957.12 554.6 1959 554.6C1960.88 554.6 1962.4 556.122 1962.4 558Z" stroke="currentColor" stroke-width="1.5" stroke-linecap="round"/>
    <path d="M2057 562V554C2057 552.343 2056.33 550.843 2055.24 549.757L2049.83 555.172C2050.55 555.895 2051 556.895 2051 558C2051 559.105 2050.55 560.105 2049.83 560.828L2055.24 566.243C2056.33 565.157 2057 563.657 2057 562Z" fill="currentColor"/>
    <path d="M2037 554V562C2037 563.657 2037.67 565.157 2038.76 566.243L2044.17 560.828C2043.45 560.105 2043 559.105 2043 558C2043 556.895 2043.45 555.895 2044.17 555.172L2038.76 549.757C2037.67 550.843 2037 552.343 2037 554Z" fill="currentColor"/>
    <path d="M2051 548H2043C2041.34 548 2039.84 548.672 2038.76 549.757L2044.17 555.172C2044.9 554.448 2045.9 554 2047 554C2048.1 554 2049.1 554.448 2049.83 555.172L2055.24 549.757C2054.16 548.672 2052.66 548 2051 548Z" fill="currentColor"/>
    <path d="M2043 568H2051C2052.66 568 2054.16 567.328 2055.24 566.243L2049.83 560.828C2049.1 561.552 2048.1 562 2047 562C2045.9 562 2044.9 561.552 2044.17 560.828L2038.76 566.243C2039.84 567.328 2041.34 568 2043 568Z" fill="currentColor"/>
    </g>
    <path d="M618.404 1178.6L622.8 1174.2M609.2 1187.8L613.596 1183.4M618.404 1183.4L622.8 1187.8M609.2 1174.2L613.596 1178.6M612.6 1172.5H619.4C622.217 1172.5 624.5 1174.78 624.5 1177.6V1184.4C624.5 1187.22 622.217 1189.5 619.4 1189.5H612.6C609.783 1189.5 607.5 1187.22 607.5 1184.4V1177.6C607.5 1174.78 609.783 1172.5 612.6 1172.5ZM619.4 1181C619.4 1182.88 617.878 1184.4 616 1184.4C614.122 1184.4 612.6 1182.88 612.6 1181C612.6 1179.12 614.122 1177.6 616 1177.6C617.878 1177.6 619.4 1179.12 619.4 1181Z" stroke="currentColor" stroke-width="1.5" stroke-linecap="round"/>
    <path d="M714 1185V1177C714 1175.34 713.328 1173.84 712.243 1172.76L706.828 1178.17C707.552 1178.9 708 1179.9 708 1181C708 1182.1 707.552 1183.1 706.828 1183.83L712.243 1189.24C713.328 1188.16 714 1186.66 714 1185Z" fill="currentColor"/>
    <path d="M694 1177V1185C694 1186.66 694.672 1188.16 695.757 1189.24L701.172 1183.83C700.448 1183.1 700 1182.1 700 1181C700 1179.9 700.448 1178.9 701.172 1178.17L695.757 1172.76C694.672 1173.84 694 1175.34 694 1177Z" fill="currentColor"/>
    <path d="M708 1171H700C698.343 1171 696.843 1171.67 695.757 1172.76L701.172 1178.17C701.895 1177.45 702.895 1177 704 1177C705.105 1177 706.105 1177.45 706.828 1178.17L712.243 1172.76C711.157 1171.67 709.657 1171 708 1171Z" fill="currentColor"/>
    <path d="M700 1191H708C709.657 1191 711.157 1190.33 712.243 1189.24L706.828 1183.83C706.105 1184.55 705.105 1185 704 1185C702.895 1185 701.895 1184.55 701.172 1183.83L695.757 1189.24C696.843 1190.33 698.343 1191 700 1191Z" fill="currentColor"/>
    </g>
    <path d="M1586 878L1584.5 876.5M1580 870V874M1582 872H1578M1573.62 878H1572C1569.79 878 1568 876.209 1568 874V864C1568 861.791 1569.79 860 1572 860H1582C1584.21 860 1586 861.791 1586 864V865.625M1586 872C1586 875.314 1583.31 878 1580 878C1576.69 878 1574 875.314 1574 872C1574 868.686 1576.69 866 1580 866C1583.31 866 1586 868.686 1586 872Z" stroke="currentColor" stroke-width="1.5" stroke-linecap="round"/>
    <path d="M1776 878L1774.5 876.5M1772 872H1768M1763.62 878H1762C1759.79 878 1758 876.209 1758 874V864C1758 861.791 1759.79 860 1762 860H1772C1774.21 860 1776 861.791 1776 864V865.625M1776 872C1776 875.314 1773.31 878 1770 878C1766.69 878 1764 875.314 1764 872C1764 868.686 1766.69 866 1770 866C1773.31 866 1776 868.686 1776 872Z" stroke="currentColor" stroke-width="1.5" stroke-linecap="round"/>
    <path d="M2161 566L2159.5 564.5M2148.62 566H2147C2144.79 566 2143 564.209 2143 562V552C2143 549.791 2144.79 548 2147 548H2157C2159.21 548 2161 549.791 2161 552V553.062M2161 560C2161 563.314 2158.31 566 2155 566C2151.69 566 2149 563.314 2149 560C2149 556.686 2151.69 554 2155 554C2158.31 554 2161 556.686 2161 560Z" stroke="currentColor" stroke-width="1.5" stroke-linecap="round"/>
    <circle cx="2243" cy="560" r="6" fill="currentColor"/>
    <path d="M1389.8 867.407C1390.03 867.755 1390.49 867.855 1390.84 867.63C1391.19 867.405 1391.29 866.94 1391.06 866.593L1389.8 867.407ZM1378.94 866.593C1378.71 866.94 1378.81 867.405 1379.16 867.63C1379.51 867.855 1379.97 867.755 1380.2 867.407L1378.94 866.593ZM1388.64 869.386C1388.86 869.031 1388.74 868.57 1388.39 868.357C1388.03 868.144 1387.57 868.259 1387.36 868.614L1388.64 869.386ZM1379 877.75H1391V876.25H1379V877.75ZM1395.75 873V871H1394.25V873H1395.75ZM1374.25 871V873H1375.75V871H1374.25ZM1385 860.25C1379.06 860.25 1374.25 865.063 1374.25 871H1375.75C1375.75 865.891 1379.89 861.75 1385 861.75V860.25ZM1395.75 871C1395.75 865.063 1390.94 860.25 1385 860.25V861.75C1390.11 861.75 1394.25 865.891 1394.25 871H1395.75ZM1391 877.75C1393.62 877.75 1395.75 875.623 1395.75 873H1394.25C1394.25 874.795 1392.79 876.25 1391 876.25V877.75ZM1379 876.25C1377.21 876.25 1375.75 874.795 1375.75 873H1374.25C1374.25 875.623 1376.38 877.75 1379 877.75V876.25ZM1382.75 877C1382.75 875.757 1383.76 874.75 1385 874.75V873.25C1382.93 873.25 1381.25 874.929 1381.25 877H1382.75ZM1385 874.75C1386.24 874.75 1387.25 875.757 1387.25 877H1388.75C1388.75 874.929 1387.07 873.25 1385 873.25V874.75ZM1385 864.75C1387.44 864.75 1388.86 865.947 1389.8 867.407L1391.06 866.593C1389.92 864.82 1388.07 863.25 1385 863.25V864.75ZM1380.2 867.407C1381.14 865.947 1382.56 864.75 1385 864.75V863.25C1381.93 863.25 1380.08 864.82 1378.94 866.593L1380.2 867.407ZM1385.64 874.386L1388.64 869.386L1387.36 868.614L1384.36 873.614L1385.64 874.386Z" fill="currentColor"/>
  </symbol>
  <symbol id="ico-activity" viewBox="219.5 648.5 24 24" fill="none">
    <path d="M420 657V655C420 652.791 421.791 651 424 651L430 651C432.209 651 434 652.791 434 655V661C434 663.209 432.209 665 430 665H428M420 657H418C415.791 657 414 658.791 414 661V667C414 669.209 415.791 671 418 671H424C426.209 671 428 669.209 428 667V665M420 657H424C426.209 657 428 658.791 428 661V665" stroke="currentColor" stroke-width="1.5" stroke-linejoin="round"/>
    <path d="M502 661C502 658.791 503.791 657 506 657H512C514.209 657 516 658.791 516 661V667C516 669.209 514.209 671 512 671H506C503.791 671 502 669.209 502 667V661Z" fill="currentColor"/>
  </symbol>
  <symbol id="ico-credit-card2" viewBox="219.5 960.5 24 24" fill="none">
    <path d="M433.825 974.874C433.94 974.267 434 973.64 434 973C434 967.477 429.523 963 424 963C418.477 963 414 967.477 414 973C414 973.745 414.082 974.471 414.236 975.17M433.825 974.874C432.948 979.501 428.882 983 424 983C419.222 983 415.227 979.65 414.236 975.17M433.825 974.874L431.061 972.884C429.534 971.784 427.447 971.898 426.048 973.157L421.952 976.843C420.553 978.102 418.466 978.216 416.939 977.116L414.236 975.17M423 970C423 971.105 422.105 972 421 972C419.895 972 419 971.105 419 970C419 968.895 419.895 968 421 968C422.105 968 423 968.895 423 970Z" stroke="currentColor" stroke-width="1.5"/>
    <path d="M509.952 976.843L514.048 973.157C515.447 971.898 517.534 971.784 519.061 972.884L521.825 974.874C520.948 979.501 516.882 983 512 983C507.222 983 503.227 979.649 502.236 975.17L504.939 977.116C506.466 978.216 508.553 978.102 509.952 976.843Z" fill="currentColor"/>
    <circle cx="509" cy="970" r="2" fill="currentColor"/>
    <path d="M610.343 1287.83C609.562 1288.61 609.562 1289.88 610.343 1290.66C611.124 1291.44 612.39 1291.44 613.172 1290.66L616 1287.83L618.828 1290.66C619.609 1291.44 620.876 1291.44 621.657 1290.66C622.438 1289.88 622.438 1288.61 621.657 1287.83L618.828 1285L621.657 1282.17C622.438 1281.39 622.438 1280.12 621.657 1279.34C620.876 1278.56 619.609 1278.56 618.828 1279.34L616 1282.17L613.172 1279.34C612.39 1278.56 611.124 1278.56 610.343 1279.34C609.562 1280.12 609.562 1281.39 610.343 1282.17L613.172 1285L610.343 1287.83Z" stroke="currentColor" stroke-width="1.5" stroke-linejoin="round"/>
    <path d="M654.343 1287.83C653.562 1288.61 653.562 1289.88 654.343 1290.66C655.124 1291.44 656.39 1291.44 657.172 1290.66L660 1287.83L662.828 1290.66C663.609 1291.44 664.876 1291.44 665.657 1290.66C666.438 1289.88 666.438 1288.61 665.657 1287.83L662.828 1285L665.657 1282.17C666.438 1281.39 666.438 1280.12 665.657 1279.34C664.876 1278.56 663.609 1278.56 662.828 1279.34L660 1282.17L657.172 1279.34C656.39 1278.56 655.124 1278.56 654.343 1279.34C653.562 1280.12 653.562 1281.39 654.343 1282.17L657.172 1285L654.343 1287.83Z" fill="currentColor"/>
    <path d="M709.657 1287.83C710.438 1288.61 710.438 1289.88 709.657 1290.66C708.876 1291.44 707.609 1291.44 706.828 1290.66L698.343 1282.17C697.562 1281.39 697.562 1280.12 698.343 1279.34C699.124 1278.56 700.39 1278.56 701.172 1279.34L709.657 1287.83Z" fill="currentColor"/>
    <path d="M818 1285C818 1290.52 813.523 1295 808 1295M818 1285C818 1279.48 813.523 1275 808 1275M818 1285H816M808 1295C802.477 1295 798 1290.52 798 1285M808 1295V1293M798 1285C798 1279.48 802.477 1275 808 1275M798 1285H800M808 1275V1277M810.861 1281.05L804.591 1283.14C803.803 1283.4 803.803 1284.51 804.591 1284.78L806.906 1285.55C807.164 1285.63 807.367 1285.84 807.453 1286.09L808.225 1288.41C808.487 1289.2 809.601 1289.2 809.864 1288.41L811.954 1282.14C812.179 1281.46 811.537 1280.82 810.861 1281.05Z" stroke="currentColor" stroke-width="1.5" stroke-linecap="round" stroke-linejoin="round"/>
    <path d="M891.665 1283.4L898.719 1281.05C899.479 1280.8 900.202 1281.52 899.948 1282.28L897.597 1289.34C897.302 1290.22 896.048 1290.22 895.753 1289.34L894.884 1286.73C894.788 1286.44 894.56 1286.21 894.27 1286.12L891.665 1285.25C890.778 1284.95 890.778 1283.7 891.665 1283.4Z" fill="currentColor"/>
  </symbol>
  <symbol id="ico-globe" viewBox="795.5 1272.5 24 24" fill="none">
    <path d="M1011 1285C1011 1290.52 1006.52 1295 1001 1295M1011 1285C1011 1279.48 1006.52 1275 1001 1275M1011 1285C1011 1283.34 1006.52 1282 1001 1282C995.477 1282 991 1283.34 991 1285M1011 1285C1011 1286.66 1006.52 1288 1001 1288C995.477 1288 991 1286.66 991 1285M1001 1295C995.477 1295 991 1290.52 991 1285M1001 1295C1003.21 1295 1005 1290.52 1005 1285C1005 1279.48 1003.21 1275 1001 1275M1001 1295C998.791 1295 997 1290.52 997 1285C997 1279.48 998.791 1275 1001 1275M991 1285C991 1279.48 995.477 1275 1001 1275" stroke="currentColor" stroke-width="1.5"/>
  </symbol>
</svg>